<svg width="23" height="23" viewBox="0 0 23 23" fill="none" xmlns="http://www.w3.org/2000/svg">
  <g clip-path="url(#clip0_13_2672)">
    <path
      d="M11.5 22.5C17.5751 22.5 22.5 17.5751 22.5 11.5C22.5 5.42487 17.5751 0.5 11.5 0.5C5.42487 0.5 0.5 5.42487 0.5 11.5C0.5 17.5751 5.42487 22.5 11.5 22.5Z"
      fill="#F0F0F0" />
    <path
      d="M21.8158 15.3261C22.258 14.1344 22.5 12.8455 22.5 11.5C22.5 10.1545 22.258 8.8656 21.8158 7.67395H1.18419C0.742043 8.8656 0.5 10.1545 0.5 11.5C0.5 12.8455 0.742043 14.1344 1.18419 15.3261L11.5 16.2826L21.8158 15.3261Z"
      fill="#0052B4" />
    <path
      d="M11.4999 22.5C16.2295 22.5 20.2615 19.5149 21.8157 15.326H1.18408C2.7383 19.5149 6.77028 22.5 11.4999 22.5Z"
      fill="#D80027" />
  </g>
  <rect x="1" y="1" width="21" height="21" rx="10.5" stroke="#EFF2F4" />
  <defs>
    <clipPath id="clip0_13_2672">
      <rect x="0.5" y="0.5" width="22" height="22" rx="11" fill="white" />
    </clipPath>
  </defs>
</svg>
