<svg width="24" height="25" viewBox="0 0 24 25" fill="currentColor"
  xmlns="http://www.w3.org/2000/svg">
  <g clip-path="url(#clip0_16_3176)">
    <path
      d="M4.75 3.5C3.7835 3.5 3 4.2835 3 5.25C3 6.2165 3.7835 7 4.75 7C5.7165 7 6.5 6.2165 6.5 5.25C6.5 4.2835 5.7165 3.5 4.75 3.5Z"
      fill="white" />
    <path
      d="M12 3.5C11.0335 3.5 10.25 4.2835 10.25 5.25C10.25 6.2165 11.0335 7 12 7C12.9665 7 13.75 6.2165 13.75 5.25C13.75 4.2835 12.9665 3.5 12 3.5Z"
      fill="white" />
    <path
      d="M19.25 3.5C18.2835 3.5 17.5 4.2835 17.5 5.25C17.5 6.2165 18.2835 7 19.25 7C20.2165 7 21 6.2165 21 5.25C21 4.2835 20.2165 3.5 19.25 3.5Z"
      fill="white" />
    <path
      d="M4.75 10.75C3.7835 10.75 3 11.5335 3 12.5C3 13.4665 3.7835 14.25 4.75 14.25C5.7165 14.25 6.5 13.4665 6.5 12.5C6.5 11.5335 5.7165 10.75 4.75 10.75Z"
      fill="white" />
    <path
      d="M12 10.75C11.0335 10.75 10.25 11.5335 10.25 12.5C10.25 13.4665 11.0335 14.25 12 14.25C12.9665 14.25 13.75 13.4665 13.75 12.5C13.75 11.5335 12.9665 10.75 12 10.75Z"
      fill="white" />
    <path
      d="M19.25 10.75C18.2835 10.75 17.5 11.5335 17.5 12.5C17.5 13.4665 18.2835 14.25 19.25 14.25C20.2165 14.25 21 13.4665 21 12.5C21 11.5335 20.2165 10.75 19.25 10.75Z"
      fill="white" />
    <path
      d="M4.75 18C3.7835 18 3 18.7835 3 19.75C3 20.7165 3.7835 21.5 4.75 21.5C5.7165 21.5 6.5 20.7165 6.5 19.75C6.5 18.7835 5.7165 18 4.75 18Z"
      fill="white" />
    <path
      d="M12 18C11.0335 18 10.25 18.7835 10.25 19.75C10.25 20.7165 11.0335 21.5 12 21.5C12.9665 21.5 13.75 20.7165 13.75 19.75C13.75 18.7835 12.9665 18 12 18Z"
      fill="white" />
    <path
      d="M19.25 18C18.2835 18 17.5 18.7835 17.5 19.75C17.5 20.7165 18.2835 21.5 19.25 21.5C20.2165 21.5 21 20.7165 21 19.75C21 18.7835 20.2165 18 19.25 18Z"
      fill="white" />
  </g>
  <defs>
    <clipPath id="clip0_16_3176">
      <rect width="24" height="24" fill="white" transform="translate(0 0.5)" />
    </clipPath>
  </defs>
</svg>
